<svg width="22" height="21" viewBox="0 0 22 21" fill="none" xmlns="http://www.w3.org/2000/svg">
<path d="M21.1021 19.2899L17.1633 15.6099C18.6922 13.8143 19.4326 11.5352 19.2323 9.2412C19.032 6.94721 17.9061 4.81269 16.0862 3.27655C14.2664 1.74041 11.8908 0.919414 9.44801 0.982375C7.00522 1.04534 4.68088 1.98747 2.95292 3.61505C1.22496 5.24263 0.224719 7.43194 0.157876 9.73283C0.0910323 12.0337 0.962663 14.2713 2.59354 15.9854C4.22442 17.6996 6.49059 18.76 8.92607 18.9487C11.3615 19.1374 13.7812 18.44 15.6876 16.9999L19.5945 20.6799C19.6932 20.7736 19.8106 20.848 19.94 20.8988C20.0694 20.9496 20.2082 20.9757 20.3483 20.9757C20.4885 20.9757 20.6272 20.9496 20.7566 20.8988C20.886 20.848 21.0034 20.7736 21.1021 20.6799C21.2935 20.4934 21.4004 20.2442 21.4004 19.9849C21.4004 19.7256 21.2935 19.4764 21.1021 19.2899V19.2899ZM9.73156 16.9999C8.2617 16.9999 6.82486 16.5894 5.60271 15.8202C4.38057 15.051 3.42803 13.9578 2.86554 12.6787C2.30305 11.3996 2.15588 9.99214 2.44263 8.63427C2.72939 7.27641 3.43719 6.02912 4.47654 5.05016C5.51588 4.07119 6.84009 3.4045 8.2817 3.13441C9.72332 2.86431 11.2176 3.00293 12.5756 3.53275C13.9335 4.06256 15.0942 4.95977 15.9108 6.11091C16.7274 7.26206 17.1633 8.61544 17.1633 9.9999C17.1633 11.8564 16.3803 13.6369 14.9866 14.9497C13.5929 16.2624 11.7026 16.9999 9.73156 16.9999V16.9999Z" fill="#C1C7CE"/>
</svg>
